<svg xmlns="http://www.w3.org/2000/svg">
  <symbol id="virtualization" viewBox="0 0 24 24">
    <rect x="3" y="4" width="13" height="10" rx="2"/><path d="M8 18h13a2 2 0 0 0 2-2V9"/><path d="M7 8h5M7 11h3"/>
  </symbol>
  <symbol id="ai" viewBox="0 0 24 24">
    <circle cx="12" cy="12" r="3"/><circle cx="5" cy="6" r="2"/><circle cx="19" cy="6" r="2"/><circle cx="5" cy="18" r="2"/><circle cx="19" cy="18" r="2"/><path d="m7 7.5 2.6 2M17 7.5l-2.6 2M7 16.5l2.6-2M17 16.5l-2.6-2"/>
  </symbol>
  <symbol id="security" viewBox="0 0 24 24">
    <path d="M12 3 4.5 6v5.5c0 4.7 3.1 8 7.5 9.5 4.4-1.5 7.5-4.8 7.5-9.5V6L12 3Z"/><path d="m8.5 12 2.2 2.2 4.8-5"/>
  </symbol>
  <symbol id="cloud" viewBox="0 0 24 24">
    <path d="M7 18h10.5a3.5 3.5 0 0 0 .5-7 6 6 0 0 0-11.4-1.8A4.5 4.5 0 0 0 7 18Z"/><path d="M9 14h6M12 11v6"/>
  </symbol>
  <symbol id="recovery" viewBox="0 0 24 24">
    <path d="M4 12a8 8 0 1 0 2.3-5.7L4 8.5"/><path d="M4 4v4.5h4.5"/><path d="M12 8v4l2.5 1.5"/>
  </symbol>
  <symbol id="network" viewBox="0 0 24 24">
    <rect x="8" y="3" width="8" height="5" rx="1"/><rect x="3" y="16" width="7" height="5" rx="1"/><rect x="14" y="16" width="7" height="5" rx="1"/><path d="M12 8v4M6.5 16v-4h11v4"/>
  </symbol>
  <symbol id="automation" viewBox="0 0 24 24">
    <path d="M8 5 3 12l5 7M16 5l5 7-5 7M14 3l-4 18"/>
  </symbol>
  <symbol id="storage" viewBox="0 0 24 24">
    <ellipse cx="12" cy="5" rx="8" ry="3"/><path d="M4 5v7c0 1.7 3.6 3 8 3s8-1.3 8-3V5"/><path d="M4 12v7c0 1.7 3.6 3 8 3s8-1.3 8-3v-7"/>
  </symbol>
  <symbol id="github" viewBox="0 0 24 24">
    <path d="M12 2a10 10 0 0 0-3.2 19.5v-2.3c-2.6.6-3.2-1.1-3.2-1.1-.4-1.1-1.1-1.4-1.1-1.4-.9-.6.1-.6.1-.6 1 0 1.5 1 1.5 1 .9 1.5 2.3 1.1 2.8.8.1-.7.4-1.1.7-1.4-2.1-.2-4.3-1-4.3-4.6 0-1 .4-1.9 1-2.6-.1-.3-.4-1.2.1-2.6 0 0 .8-.3 2.7 1a9.3 9.3 0 0 1 4.9 0c1.9-1.3 2.7-1 2.7-1 .5 1.4.2 2.3.1 2.6.7.7 1 1.6 1 2.6 0 3.6-2.2 4.4-4.3 4.6.4.3.7.9.7 1.8v3A10 10 0 0 0 12 2Z"/>
  </symbol>
  <symbol id="credential" viewBox="0 0 24 24">
    <circle cx="12" cy="9" r="6"/><path d="m8 14-1 8 5-3 5 3-1-8"/><path d="m9.5 9 1.6 1.6L15 7"/>
  </symbol>
</svg>
